HIERARCHY
ROOT newVegas:Hips
{
	OFFSET 0.000000 96.479958 0.000000
	CHANNELS 6 Xposition Yposition Zposition Xrotation Yrotation Zrotation
	JOINT newVegas:Pelvis
	{
		OFFSET 0.000000 0.000000 0.000000
		CHANNELS 3 Xrotation Yrotation Zrotation
		JOINT newVegas:LeftUpLeg
		{
			OFFSET 18.735201 -5.666702 -4.541200
			CHANNELS 3 Xrotation Yrotation Zrotation
			JOINT newVegas:LeftLeg
			{
				OFFSET -0.021200 -31.938179 0.493100
				CHANNELS 3 Xrotation Yrotation Zrotation
				JOINT newVegas:LeftFoot
				{
					OFFSET 0.021200 -31.938179 -4.336299
					CHANNELS 3 Xrotation Yrotation Zrotation
					JOINT newVegas:LeftToeBase
					{
						OFFSET 0.943001 -26.722000 15.023500
						CHANNELS 3 Xrotation Yrotation Zrotation
						End Site
						{
							OFFSET 0.000000 30.670183 0.000000
						}
					}
				}
				JOINT newVegas:Left_PantLeg
				{
					OFFSET 0.663870 -9.044666 -1.108900
					CHANNELS 3 Xrotation Yrotation Zrotation
					End Site
					{
						OFFSET 1.415995 20.635357 0.000000
					}
				}
			}
		}
		JOINT newVegas:RightUpLeg
		{
			OFFSET -18.735201 -5.666702 -4.541200
			CHANNELS 3 Xrotation Yrotation Zrotation
			JOINT newVegas:RightLeg
			{
				OFFSET 0.018946 -31.938133 0.493100
				CHANNELS 3 Xrotation Yrotation Zrotation
				JOINT newVegas:RightFoot
				{
					OFFSET -0.018946 -31.938126 -4.336299
					CHANNELS 3 Xrotation Yrotation Zrotation
					JOINT newVegas:RightToeBase
					{
						OFFSET -0.943001 -26.722004 15.023500
						CHANNELS 3 Xrotation Yrotation Zrotation
						End Site
						{
							OFFSET 0.000000 30.670187 0.000000
						}
					}
				}
				JOINT newVegas:Right_PantLeg
				{
					OFFSET -0.661674 -9.044716 -1.108900
					CHANNELS 3 Xrotation Yrotation Zrotation
					End Site
					{
						OFFSET -1.415958 20.635269 0.000000
					}
				}
			}
		}
	}
	JOINT newVegas:Spine
	{
		OFFSET 0.000000 10.199997 -0.299500
		CHANNELS 3 Xrotation Yrotation Zrotation
		JOINT newVegas:Spine1
		{
			OFFSET 0.000000 11.900002 -1.516600
			CHANNELS 3 Xrotation Yrotation Zrotation
			JOINT newVegas:Spine2
			{
				OFFSET 0.000000 13.600006 -2.842500
				CHANNELS 3 Xrotation Yrotation Zrotation
				JOINT newVegas:Neck
				{
					OFFSET 0.000000 9.624100 -2.890100
					CHANNELS 3 Xrotation Yrotation Zrotation
					JOINT newVegas:Head
					{
						OFFSET 0.000000 14.068802 -1.351900
						CHANNELS 3 Xrotation Yrotation Zrotation
						JOINT newVegas:Hair_Back
						{
							OFFSET 0.000000 3.231903 -17.524799
							CHANNELS 3 Xrotation Yrotation Zrotation
							End Site
							{
								OFFSET 0.000000 19.849884 0.000000
							}
						}
						JOINT newVegas:Hair_Front
						{
							OFFSET 0.000000 31.260406 4.573800
							CHANNELS 3 Xrotation Yrotation Zrotation
							JOINT newVegas:Hair_Front1
							{
								OFFSET 0.000000 2.284103 11.993300
								CHANNELS 3 Xrotation Yrotation Zrotation
								JOINT newVegas:Hair_Front2
								{
									OFFSET 0.000000 2.284103 11.993300
									CHANNELS 3 Xrotation Yrotation Zrotation
									End Site
									{
										OFFSET 0.000000 12.208862 0.000000
									}
								}
							}
						}
						JOINT newVegas:Jowel
						{
							OFFSET 0.000000 -7.458206 6.864100
							CHANNELS 3 Xrotation Yrotation Zrotation
							End Site
							{
								OFFSET 0.000000 19.849884 0.000000
							}
						}
					}
				}
				JOINT newVegas:LeftShoulder
				{
					OFFSET 15.263000 10.923401 -0.547700
					CHANNELS 3 Xrotation Yrotation Zrotation
					JOINT newVegas:LeftArm
					{
						OFFSET 25.438599 -2.830597 -13.032500
						CHANNELS 3 Xrotation Yrotation Zrotation
						JOINT newVegas:LeftForeArm
						{
							OFFSET 29.960503 0.000000 0.000000
							CHANNELS 3 Xrotation Yrotation Zrotation
							JOINT newVegas:LeftHand
							{
								OFFSET 27.849251 0.000000 0.000000
								CHANNELS 3 Xrotation Yrotation Zrotation
								JOINT newVegas:LeftHandThumb1
								{
									OFFSET 4.487587 -3.305161 6.305391
									CHANNELS 3 Xrotation Yrotation Zrotation
									JOINT newVegas:LeftHandThumb2
									{
										OFFSET 5.480453 -3.164139 3.164143
										CHANNELS 3 Xrotation Yrotation Zrotation
										JOINT newVegas:LeftHandThumb3
										{
											OFFSET 5.159721 -2.978973 2.978967
											CHANNELS 3 Xrotation Yrotation Zrotation
											End Site
											{
												OFFSET 2.494507 5.926697 1.738678
											}
										}
									}
								}
								JOINT newVegas:LeftHandIndex1
								{
									OFFSET 18.578728 -0.527832 5.208049
									CHANNELS 3 Xrotation Yrotation Zrotation
									JOINT newVegas:LeftHandIndex2
									{
										OFFSET 3.192009 0.000000 0.000000
										CHANNELS 3 Xrotation Yrotation Zrotation
										JOINT newVegas:LeftHandIndex3
										{
											OFFSET 3.835129 0.000000 0.000000
											CHANNELS 3 Xrotation Yrotation Zrotation
											End Site
											{
												OFFSET -0.034599 3.816971 0.371180
											}
										}
									}
								}
								JOINT newVegas:LeftHandMiddle1
								{
									OFFSET 18.476105 0.000000 0.000000
									CHANNELS 3 Xrotation Yrotation Zrotation
									JOINT newVegas:LeftHandMiddle2
									{
										OFFSET 3.324875 0.000000 0.000000
										CHANNELS 3 Xrotation Yrotation Zrotation
										JOINT newVegas:LeftHandMiddle3
										{
											OFFSET 4.596550 0.000000 0.000000
											CHANNELS 3 Xrotation Yrotation Zrotation
											End Site
											{
												OFFSET 0.057701 4.578827 0.399218
											}
										}
									}
								}
								JOINT newVegas:LeftHandRing1
								{
									OFFSET 17.732719 0.121887 -4.201567
									CHANNELS 3 Xrotation Yrotation Zrotation
									JOINT newVegas:LeftHandRing2
									{
										OFFSET 2.733170 0.000000 0.000000
										CHANNELS 3 Xrotation Yrotation Zrotation
										JOINT newVegas:LeftHandRing3
										{
											OFFSET 3.178268 0.000000 0.000000
											CHANNELS 3 Xrotation Yrotation Zrotation
											End Site
											{
												OFFSET 0.119102 3.170624 0.185394
											}
										}
									}
								}
								JOINT newVegas:LeftHandPinky1
								{
									OFFSET 15.989624 -0.606689 -7.535461
									CHANNELS 3 Xrotation Yrotation Zrotation
									JOINT newVegas:LeftHandPinky2
									{
										OFFSET 2.538986 0.000000 0.000000
										CHANNELS 3 Xrotation Yrotation Zrotation
										JOINT newVegas:LeftHandPinky3
										{
											OFFSET 2.593102 0.000000 0.000000
											CHANNELS 3 Xrotation Yrotation Zrotation
											End Site
											{
												OFFSET -0.150902 2.584198 0.152708
											}
										}
									}
								}
							}
							JOINT newVegas:Left_Sleeve
							{
								OFFSET 0.267448 -0.649796 0.577675
								CHANNELS 3 Xrotation Yrotation Zrotation
								End Site
								{
									OFFSET 0.000000 15.991241 0.000000
								}
							}
							JOINT newVegas:Left_CapeC
							{
								OFFSET 15.715958 -8.608795 -6.935905
								CHANNELS 3 Xrotation Yrotation Zrotation
								JOINT newVegas:Left_CapeC1
								{
									OFFSET 0.000000 -8.688499 0.000000
									CHANNELS 3 Xrotation Yrotation Zrotation
									End Site
									{
										OFFSET 0.000000 8.688499 0.000000
									}
								}
							}
						}
						JOINT newVegas:Left_CapeB
						{
							OFFSET 26.118385 -8.608795 -7.079235
							CHANNELS 3 Xrotation Yrotation Zrotation
							JOINT newVegas:Left_CapeB1
							{
								OFFSET 0.000000 -8.688499 0.000000
								CHANNELS 3 Xrotation Yrotation Zrotation
								End Site
								{
									OFFSET 0.000000 8.688499 0.000000
								}
							}
						}
						JOINT newVegas:Left_CapeA
						{
							OFFSET 5.115639 -8.608795 -10.395809
							CHANNELS 3 Xrotation Yrotation Zrotation
							JOINT newVegas:Left_CapeA1
							{
								OFFSET 0.000000 -8.688499 0.000000
								CHANNELS 3 Xrotation Yrotation Zrotation
								End Site
								{
									OFFSET 0.000000 8.688499 0.000000
								}
							}
						}
					}
				}
				JOINT newVegas:RightShoulder
				{
					OFFSET -15.263000 10.923401 -0.547700
					CHANNELS 3 Xrotation Yrotation Zrotation
					JOINT newVegas:RightArm
					{
						OFFSET -25.438599 -2.830597 -13.032500
						CHANNELS 3 Xrotation Yrotation Zrotation
						JOINT newVegas:RightForeArm
						{
							OFFSET -29.960503 0.000000 0.000000
							CHANNELS 3 Xrotation Yrotation Zrotation
							JOINT newVegas:RightHand
							{
								OFFSET -27.849251 0.000000 0.000000
								CHANNELS 3 Xrotation Yrotation Zrotation
								JOINT newVegas:RightHandThumb1
								{
									OFFSET -4.487587 -3.305161 6.305391
									CHANNELS 3 Xrotation Yrotation Zrotation
									JOINT newVegas:RightHandThumb2
									{
										OFFSET -5.480453 -3.164139 3.164143
										CHANNELS 3 Xrotation Yrotation Zrotation
										JOINT newVegas:RightHandThumb3
										{
											OFFSET -5.159721 -2.978973 2.978967
											CHANNELS 3 Xrotation Yrotation Zrotation
											End Site
											{
												OFFSET -2.494507 5.926697 1.738678
											}
										}
									}
								}
								JOINT newVegas:RightHandIndex1
								{
									OFFSET -18.578728 -0.527832 5.208049
									CHANNELS 3 Xrotation Yrotation Zrotation
									JOINT newVegas:RightHandIndex2
									{
										OFFSET -3.192009 0.000000 0.000000
										CHANNELS 3 Xrotation Yrotation Zrotation
										JOINT newVegas:RightHandIndex3
										{
											OFFSET -3.835129 0.000000 0.000000
											CHANNELS 3 Xrotation Yrotation Zrotation
											End Site
											{
												OFFSET 0.034599 3.816971 0.371180
											}
										}
									}
								}
								JOINT newVegas:RightHandMiddle1
								{
									OFFSET -18.476105 0.000000 0.000000
									CHANNELS 3 Xrotation Yrotation Zrotation
									JOINT newVegas:RightHandMiddle2
									{
										OFFSET -3.324875 0.000000 0.000000
										CHANNELS 3 Xrotation Yrotation Zrotation
										JOINT newVegas:RightHandMiddle3
										{
											OFFSET -4.596550 0.000000 0.000000
											CHANNELS 3 Xrotation Yrotation Zrotation
											End Site
											{
												OFFSET -0.057701 4.578827 0.399218
											}
										}
									}
								}
								JOINT newVegas:RightHandRing1
								{
									OFFSET -17.732719 0.121887 -4.201567
									CHANNELS 3 Xrotation Yrotation Zrotation
									JOINT newVegas:RightHandRing2
									{
										OFFSET -2.733170 0.000000 0.000000
										CHANNELS 3 Xrotation Yrotation Zrotation
										JOINT newVegas:RightHandRing3
										{
											OFFSET -3.178268 0.000000 0.000000
											CHANNELS 3 Xrotation Yrotation Zrotation
											End Site
											{
												OFFSET -0.119102 3.170624 0.185394
											}
										}
									}
								}
								JOINT newVegas:RightHandPinky1
								{
									OFFSET -15.989624 -0.606689 -7.535461
									CHANNELS 3 Xrotation Yrotation Zrotation
									JOINT newVegas:RightHandPinky2
									{
										OFFSET -2.538986 0.000000 0.000000
										CHANNELS 3 Xrotation Yrotation Zrotation
										JOINT newVegas:RightHandPinky3
										{
											OFFSET -2.593102 0.000000 0.000000
											CHANNELS 3 Xrotation Yrotation Zrotation
											End Site
											{
												OFFSET 0.150902 2.584198 0.152708
											}
										}
									}
								}
							}
							JOINT newVegas:Right_CapeC
							{
								OFFSET -15.715958 -8.608795 -6.935905
								CHANNELS 3 Xrotation Yrotation Zrotation
								JOINT newVegas:Right_CapeC1
								{
									OFFSET 0.000000 -8.688499 0.000000
									CHANNELS 3 Xrotation Yrotation Zrotation
									End Site
									{
										OFFSET 0.000000 8.688499 0.000000
									}
								}
							}
							JOINT newVegas:Right_Sleeve
							{
								OFFSET -0.267448 -0.649994 0.577675
								CHANNELS 3 Xrotation Yrotation Zrotation
								End Site
								{
									OFFSET 0.000000 15.991302 0.000000
								}
							}
						}
						JOINT newVegas:Right_CapeA
						{
							OFFSET -5.115540 -8.608795 -10.395824
							CHANNELS 3 Xrotation Yrotation Zrotation
							JOINT newVegas:Right_CapeA1
							{
								OFFSET 0.000000 -8.688499 0.000000
								CHANNELS 3 Xrotation Yrotation Zrotation
								End Site
								{
									OFFSET 0.000000 8.688499 0.000000
								}
							}
						}
						JOINT newVegas:Right_CapeB
						{
							OFFSET -26.118187 -8.608795 -7.079266
							CHANNELS 3 Xrotation Yrotation Zrotation
							JOINT newVegas:Right_CapeB1
							{
								OFFSET 0.000000 -8.688499 0.000000
								CHANNELS 3 Xrotation Yrotation Zrotation
								End Site
								{
									OFFSET 0.000000 8.688499 0.000000
								}
							}
						}
					}
				}
				JOINT newVegas:Left_Collar
				{
					OFFSET 18.625099 8.655502 8.828100
					CHANNELS 3 Xrotation Yrotation Zrotation
					JOINT newVegas:Left_Collar1
					{
						OFFSET 14.783401 10.540405 -1.259500
						CHANNELS 3 Xrotation Yrotation Zrotation
						End Site
						{
							OFFSET 0.000000 18.199875 0.000000
						}
					}
				}
				JOINT newVegas:Collar_Back
				{
					OFFSET 0.000000 15.630707 -20.132601
					CHANNELS 3 Xrotation Yrotation Zrotation
					End Site
					{
						OFFSET 0.000000 22.523010 0.000000
					}
				}
				JOINT newVegas:Left_Peck
				{
					OFFSET 17.239599 -5.132599 25.482599
					CHANNELS 3 Xrotation Yrotation Zrotation
					End Site
					{
						OFFSET 0.000000 22.523010 0.000000
					}
				}
				JOINT newVegas:Right_Peck
				{
					OFFSET -17.239599 -5.132202 25.482599
					CHANNELS 3 Xrotation Yrotation Zrotation
					End Site
					{
						OFFSET 0.000000 22.523010 0.000000
					}
				}
				JOINT newVegas:Right_Collar
				{
					OFFSET -18.625099 8.655792 8.828100
					CHANNELS 3 Xrotation Yrotation Zrotation
					JOINT newVegas:Right_Collar1
					{
						OFFSET -14.783401 10.539993 -1.259500
						CHANNELS 3 Xrotation Yrotation Zrotation
						End Site
						{
							OFFSET 0.000000 18.199631 0.000000
						}
					}
				}
			}
		}
		JOINT newVegas:Belly
		{
			OFFSET 0.000000 -6.540398 9.014299
			CHANNELS 3 Xrotation Yrotation Zrotation
			End Site
			{
				OFFSET 0.000000 11.566666 0.000000
			}
		}
	}
	JOINT newVegas:ElvisFacialAnim_Joint
	{
		OFFSET 1.000000 -95.330101 -8.825800
		CHANNELS 3 Xrotation Yrotation Zrotation
		End Site
		{
			OFFSET 0.000000 35.315800 0.000000
		}
	}
}
MOTION
Frames: 4
Frame Time: 0.033333
2.489546 44.871841 6.248959 -18.815342 17.397626 17.877822 -0.000000 0.000000 -0.000000 -100.024944 12.365071 25.462491 131.817474 -1.420468 -2.750464 -16.160211 -0.048543 14.648217 0.000000 -0.000002 -0.000000 0.000000 0.000000 0.000001 -104.671946 43.554129 8.780933 159.330459 14.925290 3.552347 3.875565 7.275884 18.231621 -0.000001 0.000000 -0.000001 -0.000003 0.000002 0.000001 9.199927 -3.567600 -1.363827 18.328111 -7.375324 -2.565470 18.328099 -7.375317 -2.565467 -2.142107 -1.904776 0.614958 -2.142116 -1.904777 0.614959 0.000003 0.000000 -0.000000 -2.142118 -1.904776 0.614958 -2.142108 -1.904777 0.614958 -0.000001 0.000000 0.000000 0.000003 0.000000 -0.000000 -3.232703 -17.169033 -4.109966 -16.448016 -7.186770 -57.090054 -1.842602 -79.622561 -1.982192 59.994401 2.466380 -27.697805 -2.379782 9.118156 15.174824 2.275273 6.589349 2.293067 -0.000000 -0.000003 -0.000005 0.651036 4.521128 -5.061394 0.279869 1.079038 -39.896648 0.000001 -0.000000 -0.000000 1.367938 7.162940 -18.170516 -1.312934 -3.445303 -40.624244 0.000001 -0.000001 -0.000001 0.225187 8.920493 -31.484966 -1.041020 -4.127775 -33.759631 0.000000 0.000001 -0.000001 -1.161512 10.106443 -30.052846 -1.837366 -7.884749 -38.553682 0.000001 -0.000005 -0.000001 -0.000001 0.000000 0.000001 -0.000001 0.000000 0.000001 -0.000001 -0.000001 0.000001 0.000002 -0.000001 -0.000002 0.000002 -0.000000 -0.000002 0.000002 -0.000001 -0.000002 0.000002 -0.000001 -0.000002 -2.473823 -0.080727 -15.633326 -52.244086 -8.293991 16.092086 0.135903 31.355179 0.405893 -28.278119 -0.410167 1.481721 6.916641 -17.650976 14.587213 17.774393 -26.147853 6.692706 0.000000 -0.000003 0.000001 -2.457257 -6.792896 10.915659 -0.028096 -0.814194 8.713769 -0.000000 0.000000 -0.000001 0.706989 -2.217464 90.763030 -4.271233 3.187706 94.670978 0.000002 0.000002 -0.000001 -1.586349 1.234908 99.924950 -6.496357 6.841628 80.046948 -0.000001 -0.000001 0.000003 2.456614 0.759532 96.925807 -13.725380 11.255195 90.583294 0.000002 0.000002 -0.000002 -0.000000 -0.000003 -0.000000 0.000000 -0.000007 -0.000001 0.000000 -0.000003 -0.000001 0.000001 -0.000001 -0.000000 0.000001 0.000000 -0.000001 0.000001 -0.000001 -0.000000 0.000001 -0.000000 -0.000001 -0.000000 0.000000 0.000000 -0.000000 0.000000 0.000000 -0.000000 0.000000 0.000000 -0.000000 0.000000 0.000000 -0.000000 0.000000 0.000000 -0.000000 0.000000 0.000000 -0.000000 0.000000 0.000000 0.000001 0.000001 -0.000001 -0.000000 0.000000 -0.000000 
2.500330 44.869034 6.246664 -18.805623 17.433228 17.869563 0.000000 0.000001 -0.000000 -100.070078 12.387661 25.436903 131.814291 -1.412038 -2.749505 -16.138547 -0.039608 14.675109 0.000000 0.000002 0.000000 -0.000000 -0.000001 0.000000 -104.579608 43.631679 8.761816 159.325842 14.982020 3.560891 3.776470 7.260961 18.303380 -0.000000 -0.000001 0.000000 0.000000 0.000001 -0.000003 9.200246 -3.566315 -1.362570 18.328676 -7.371401 -2.564864 18.328678 -7.371401 -2.564860 -2.140104 -1.897663 0.600997 -2.140109 -1.897661 0.600996 -0.000000 0.000000 -0.000000 -2.140068 -1.897657 0.600997 -2.140017 -1.897668 0.601000 -0.000002 0.000000 0.000000 -0.000000 0.000000 -0.000000 -3.232889 -17.166808 -4.108861 -16.455939 -7.190572 -57.096519 -1.854176 -79.679225 -1.993252 60.017747 2.450054 -27.711720 -2.368028 9.109480 15.177652 2.267170 6.586943 2.290391 0.000001 -0.000001 0.000001 0.660725 4.611116 -5.107850 0.285472 1.075874 -39.972941 0.000001 -0.000000 0.000000 1.369894 7.190609 -18.223571 -1.298943 -3.433828 -40.428989 0.000001 -0.000000 0.000001 0.215499 8.887466 -31.516077 -1.052081 -4.138429 -33.890125 -0.000000 -0.000001 0.000001 -1.188002 10.009365 -30.132817 -1.851763 -7.893006 -38.688961 0.000002 0.000000 -0.000001 0.000003 0.000001 0.000001 0.000003 0.000001 0.000001 0.000002 -0.000000 0.000001 -0.000000 0.000000 0.000001 0.000000 0.000000 0.000001 -0.000000 0.000000 0.000001 0.000000 -0.000000 0.000001 -2.473845 -0.081118 -15.629616 -51.841300 -9.031838 16.214229 0.130659 32.852704 0.461924 -28.267279 -0.962790 0.983382 6.916578 -17.650988 14.587086 17.774623 -26.148343 6.692777 0.000003 0.000000 0.000001 -2.457161 -6.792993 10.915877 -0.028119 -0.814194 8.713876 0.000004 -0.000001 0.000002 0.707068 -2.217582 90.762470 -4.271216 3.187676 94.671053 -0.000002 0.000001 -0.000001 -1.586199 1.234767 99.924513 -6.496298 6.841610 80.046409 0.000002 -0.000001 0.000000 2.456734 0.759315 96.925405 -13.725235 11.255242 90.582549 -0.000001 0.000001 0.000001 -0.000002 0.000005 0.000001 -0.000003 -0.000001 -0.000001 -0.000002 0.000004 0.000002 -0.000000 0.000001 0.000000 -0.000000 0.000002 0.000001 -0.000000 0.000001 0.000000 0.000000 0.000002 0.000001 -0.000000 -0.000000 -0.000000 -0.000000 -0.000000 -0.000000 -0.000000 -0.000000 -0.000000 -0.000000 -0.000000 -0.000000 -0.000000 -0.000000 -0.000000 -0.000000 -0.000000 -0.000000 -0.000000 -0.000000 -0.000000 -0.000000 -0.000000 0.000000 0.000000 0.000001 -0.000000 
2.513271 44.866051 6.244097 -18.796040 17.473403 17.858037 0.000000 0.000000 0.000001 -100.120970 12.411314 25.405531 131.812447 -1.402300 -2.748362 -16.114781 -0.028068 14.705519 -0.000000 -0.000000 -0.000000 0.000001 -0.000001 -0.000000 -104.462477 43.717237 8.734215 159.319408 15.045805 3.570593 3.657852 7.243154 18.385119 -0.000003 -0.000000 -0.000000 0.000000 0.000000 0.000002 9.200534 -3.565034 -1.361065 18.329219 -7.367110 -2.563982 18.329216 -7.367099 -2.563987 -2.137647 -1.889764 0.586312 -2.137644 -1.889762 0.586311 0.000000 0.000000 -0.000000 -2.137638 -1.889763 0.586311 -2.137561 -1.889768 0.586315 -0.000002 -0.000000 0.000000 0.000000 0.000000 -0.000000 -3.232934 -17.166045 -4.108473 -16.456593 -7.186856 -57.092452 -1.869439 -79.752718 -2.007916 60.033838 2.438673 -27.739271 -2.334388 9.084596 15.185735 2.243922 6.580166 2.282725 0.000001 -0.000003 0.000000 0.667196 4.734041 -5.242091 0.301520 1.066641 -40.191814 -0.000001 0.000000 -0.000000 1.364877 7.225830 -18.370738 -1.293030 -3.430380 -40.367798 0.000000 0.000000 -0.000001 0.201484 8.836111 -31.611304 -1.083965 -4.168741 -34.264013 -0.000000 -0.000002 -0.000002 -1.236952 9.864427 -30.381798 -1.893149 -7.916481 -39.077169 0.000001 -0.000001 -0.000004 0.000001 -0.000000 0.000001 0.000001 -0.000000 0.000001 0.000000 -0.000001 0.000001 0.000001 0.000000 -0.000000 0.000001 0.000000 -0.000000 0.000001 0.000000 -0.000000 0.000001 -0.000001 -0.000000 -2.473825 -0.081270 -15.628311 -51.401804 -9.867163 16.365017 0.119059 34.517403 0.523862 -28.272366 -1.565139 0.430889 6.916588 -17.650988 14.587035 17.774686 -26.148512 6.692827 0.000001 0.000001 -0.000000 -2.457126 -6.793033 10.915951 -0.028115 -0.814175 8.713919 -0.000002 -0.000000 0.000001 0.707104 -2.217611 90.762047 -4.271231 3.187687 94.671107 0.000004 0.000002 -0.000002 -1.586133 1.234709 99.924370 -6.496281 6.841619 80.046218 0.000002 0.000001 -0.000001 2.456856 0.759161 96.925077 -13.725189 11.255285 90.582249 0.000001 0.000005 -0.000001 -0.000000 0.000000 0.000001 0.000000 -0.000000 0.000003 -0.000000 0.000000 0.000002 -0.000001 0.000003 0.000001 -0.000001 0.000003 0.000001 -0.000001 0.000003 0.000001 -0.000001 0.000003 0.000001 0.000002 0.000000 0.000000 0.000002 0.000000 0.000000 0.000002 0.000000 0.000000 0.000002 0.000000 0.000000 0.000002 0.000000 0.000000 0.000002 0.000000 0.000000 0.000002 0.000000 0.000000 -0.000000 0.000000 0.000002 0.000000 0.000000 0.000001 
2.533527 44.853142 6.243370 -18.709941 17.552901 17.796565 0.000001 0.000003 -0.000000 -100.274130 12.391211 25.344349 131.861187 -1.391901 -2.745425 -16.156147 0.062199 14.722251 -0.000000 -0.000001 0.000000 0.000000 -0.000002 0.000002 -104.413034 43.761920 8.673117 159.308657 15.081635 3.577092 3.556192 7.238122 18.458665 -0.000001 0.000000 -0.000000 0.000001 0.000001 0.000000 9.200849 -3.561375 -1.368614 18.329668 -7.355442 -2.576506 18.329675 -7.355439 -2.576504 -2.134849 -1.881073 0.570933 -2.134848 -1.881074 0.570933 0.000001 -0.000000 0.000000 -2.134903 -1.881073 0.570931 -2.134770 -1.881077 0.570937 0.000000 0.000000 -0.000000 0.000001 -0.000000 0.000000 -3.240321 -17.063356 -4.078058 -16.441437 -7.217950 -57.176337 -1.942471 -80.077623 -2.078266 60.061303 2.404769 -28.101533 -2.281245 9.045174 15.198590 2.207092 6.569399 2.270613 0.000001 -0.000004 -0.000001 0.670923 4.886182 -5.454852 0.326770 1.051834 -40.538327 0.000002 -0.000000 -0.000000 1.353688 7.267769 -18.602094 -1.294208 -3.433982 -40.425195 0.000000 0.000001 0.000001 0.183533 8.768470 -31.763877 -1.134809 -4.216052 -34.854910 0.000001 0.000001 -0.000000 -1.306408 9.677319 -30.781805 -1.958894 -7.952949 -39.691800 0.000001 -0.000003 -0.000000 0.000002 -0.000000 -0.000000 0.000002 -0.000000 -0.000000 0.000002 -0.000001 -0.000000 -0.000001 0.000000 -0.000001 -0.000000 -0.000001 -0.000001 -0.000001 0.000000 -0.000001 -0.000000 -0.000001 -0.000001 -2.473122 -0.078520 -15.602150 -50.265845 -10.598432 16.423499 0.104173 36.076742 0.584890 -29.066403 -1.911479 -0.252628 6.917758 -17.651147 14.590244 17.769309 -26.136588 6.690811 0.000000 -0.000001 0.000006 -2.459060 -6.790615 10.911033 -0.028139 -0.814121 8.711946 0.000000 -0.000001 0.000001 0.705019 -2.215837 90.775010 -4.270415 3.187813 94.660780 0.000003 0.000002 -0.000001 -1.589998 1.237747 99.934690 -6.497778 6.841601 80.058860 0.000001 0.000001 -0.000001 2.454360 0.763965 96.934564 -13.728702 11.254191 90.600342 -0.000001 0.000001 0.000003 0.000002 0.000005 0.000001 -0.000000 0.000004 0.000001 0.000002 0.000004 -0.000000 0.000001 -0.000002 -0.000001 0.000001 -0.000001 -0.000001 0.000001 -0.000002 -0.000001 0.000001 -0.000001 -0.000001 -0.000000 0.000000 -0.000000 -0.000000 0.000000 -0.000000 -0.000000 0.000000 -0.000000 -0.000000 0.000000 -0.000000 -0.000000 0.000000 -0.000000 -0.000000 0.000000 -0.000000 -0.000000 0.000000 -0.000000 0.000001 -0.000001 -0.000000 0.000001 0.000003 -0.000000 
